<svg xmlns="http://www.w3.org/2000/svg" viewBox="0 0 18.1 18.1"><defs><style>.cls-1{fill:#1e4fad;}.cls-2{fill:#fff;fill-rule:evenodd;}</style></defs><g id="Layer_2" data-name="Layer 2"><g id="Layer_1-2" data-name="Layer 1"><circle class="cls-1" cx="9.05" cy="9.05" r="9.05"/><path class="cls-2" d="M10.06,6.56h.85V5.26a2.71,2.71,0,0,0-.41,0c-.26,0-.51,0-.77,0a1.94,1.94,0,0,0-1.09.33A1.66,1.66,0,0,0,8,6.62a3.43,3.43,0,0,0,0,.56c0,.29,0,.58,0,.87v.11H6.7V9.62H7.94v3.65H9.45V9.62h1.23c.07-.48.13-1,.19-1.46H9.44s0-.72,0-1S9.72,6.57,10.06,6.56Z"/></g></g></svg>