<svg xmlns="http://www.w3.org/2000/svg" viewBox="0 0 73.02 73.02"><defs><style>.cls-1{fill:#fff;}.cls-2{fill:#ffbb7d;}.cls-3,.cls-4{fill:#1d1d1b;}.cls-3{opacity:0.1;}</style></defs><g id="Layer_2" data-name="Layer 2"><g id="Layer_1-2" data-name="Layer 1"><circle class="cls-1" cx="36.51" cy="36.51" r="36.51"/><path class="cls-2" d="M33.56,63c3.82.2,7.25-1,8.09-3.39a1.58,1.58,0,0,0,.09-.31l.52-6.51.15-2L22.89,38.2,21.5,50.85C20,58.73,27.31,62.66,33.56,63Z"/><path class="cls-3" d="M33.56,63c3.82.2,7.25-1,8.09-3.39a1.58,1.58,0,0,0,.09-.31l.52-6.51L28,45.22C26.07,52.8,29.13,60.29,33.56,63Z"/><path class="cls-2" d="M52.51,20.46C51.14,12.68,43.18,9.83,34.74,10c-11.56.3-14.59,8.75-14.89,17.77a56.75,56.75,0,0,0,2.67,13.26L28,45.22s1.57,4.68,4.49,7.14,6.53,4.27,10.1,3.55c3.85-.58,6.5-3,7.51-9.23,1-5.92,1.73-6.33,2-9,.17-1.53-.13-3.26,0-4.09.14-1,.81-2.38,1-3.5A43.46,43.46,0,0,0,52.51,20.46Z"/><path class="cls-2" d="M28,33.78C27.72,32,27.31,29,25.3,28.26c-2.72-1-2.73,2.82-2.53,4.49.13,1.09.49,2.12.63,3.22s-.11,2.39.62,3.21c1.8,2,3.59-1.42,3.95-2.8C28.11,35.83,28.36,34.1,28,33.78Z"/><path class="cls-4" d="M50.62,43.88c-4.22-3.72-10.73,2.52-12.76,2.65-6.22.42-7.55-6.94-7.54-13.13L27.89,33c-.5,14.23.05,14.94.61,17.63C30.69,61,47.61,62,50.13,53.72,51.36,49.65,51.42,45.56,50.62,43.88Z"/><path class="cls-2" d="M49,47c0-2.2-6.1.13-7.82,2.51-1.8,3.23,2.47,5,3.35,1.25l2-.83C47.42,52.23,49.32,49,49,47Z"/></g></g></svg>