<svg xmlns="http://www.w3.org/2000/svg" xmlns:xlink="http://www.w3.org/1999/xlink" viewBox="0 0 18.1 18.1"><defs><style>.cls-1{fill:url(#linear-gradient);}.cls-2{fill:#fff;}</style><linearGradient id="linear-gradient" x1="15.19" y1="0.34" x2="3" y2="17.63" gradientUnits="userSpaceOnUse"><stop offset="0.01" stop-color="#3542e0"/><stop offset="0.17" stop-color="#3841df"/><stop offset="0.27" stop-color="#403fda"/><stop offset="0.36" stop-color="#4e3cd2"/><stop offset="0.43" stop-color="#6337c7"/><stop offset="0.5" stop-color="#7d31b9"/><stop offset="0.56" stop-color="#9e2aa8"/><stop offset="0.62" stop-color="#c32193"/><stop offset="0.62" stop-color="#c82091"/><stop offset="0.76" stop-color="#f62b37"/><stop offset="1" stop-color="#ffc658"/></linearGradient></defs><g id="Layer_2" data-name="Layer 2"><g id="Layer_1-2" data-name="Layer 1"><circle class="cls-1" cx="9.05" cy="9.05" r="9.05"/><path class="cls-2" d="M12.86,7a2.06,2.06,0,0,0-.63-1.33,2.17,2.17,0,0,0-1.42-.58A27,27,0,0,0,7,5.13a2,2,0,0,0-1.68,1.5,22.69,22.69,0,0,0,0,4.36,2,2,0,0,0,1.56,1.69,22.84,22.84,0,0,0,4.3,0,2,2,0,0,0,1.7-1.55A25.34,25.34,0,0,0,12.86,7Zm-.71,3.87A1.32,1.32,0,0,1,10.91,12a23.17,23.17,0,0,1-4,0,1.29,1.29,0,0,1-1-1.1A26.82,26.82,0,0,1,5.94,7,1.32,1.32,0,0,1,7.17,5.8a25.62,25.62,0,0,1,3.82,0,1.3,1.3,0,0,1,1.17,1.23A28.51,28.51,0,0,1,12.15,10.86ZM9,6.93a2,2,0,1,0,2,2A2,2,0,0,0,9,6.93ZM9,10.2a1.29,1.29,0,1,1,1.3-1.28A1.28,1.28,0,0,1,9,10.2Zm2.55-3.35a.47.47,0,0,1-.94,0,.45.45,0,0,1,.47-.46A.47.47,0,0,1,11.58,6.85Z"/></g></g></svg>